<svg xmlns="http://www.w3.org/2000/svg" xmlns:xlink="http://www.w3.org/1999/xlink" width="231" height="163" version="1.1" viewBox="0 0 231 163"><title>xxxhdpi/ic_mi</title><desc>Created with Sketch.</desc><defs><path id="path-1" d="M46.3384894,13.3389524 C46.3384894,14.8819967 45.0901687,16.1335262 43.5476772,16.1335262 C42.0067099,16.1335262 40.7583893,14.8819967 40.7583893,13.3389524 C40.7583893,11.7959082 42.0067099,10.5443787 43.5476772,10.5443787 C45.0901687,10.5443787 46.3384894,11.7959082 46.3384894,13.3389524"/><filter id="filter-2" width="315%" height="314.7%" x="-107.5%" y="-107.4%" filterUnits="objectBoundingBox"><feOffset dx="0" dy="0" in="SourceAlpha" result="shadowOffsetOuter1"/><feGaussianBlur in="shadowOffsetOuter1" result="shadowBlurOuter1" stdDeviation="2"/><feColorMatrix in="shadowBlurOuter1" type="matrix" values="0 0 0 0 1 0 0 0 0 1 0 0 0 0 1 0 0 0 1 0"/></filter></defs><g id="Page-1" fill="none" fill-rule="evenodd" stroke="none" stroke-width="1"><g id="ic_mi" transform="translate(114.000000, 70.500000) scale(-1, 1) translate(-114.000000, -70.500000) translate(-25.000000, -54.000000)"><g id="ic_man" transform="translate(38.000000, 95.000000)"><g id="man"><path id="Path-2" fill="#F6C9B6" d="M30.3192899,20.0555454 C30.3192899,16.4579844 31.6375064,13.4600169 34.2739393,11.0616429 C37.150048,10.5819681 38.5881023,12.620586 38.5881023,17.1774966 L40.3856702,15.7932177 C46.617239,13.5981841 52.0099427,12.0209925 56.5637814,11.0616429 C63.3945395,9.62261854 75.2584877,8.90310635 75.2584877,10.3421307 C75.2584877,11.7811551 74.5394605,20.0555454 65.551621,30.1287161 C64.3532424,25.0921307 60.9977823,22.5738381 55.4852407,22.5738381 C60.7581065,19.9356267 62.915188,18.616521 61.9564851,18.616521 C56.5637814,18.2567649 47.5759418,19.3360332 40.3856702,20.7251545 C40.3856702,22.5738381 39.666643,25.4518868 40.3856702,26.8909112 C43.2617789,27.9701795 45.0593468,26.5311551 46.1378875,26.8909112 C47.5759418,28.6896917 45.7783739,31.2921722 42.1832381,31.5677405 C39.5468052,32.0474153 36.6706965,32.0474153 33.5549121,31.5677405 C30.199452,34.9254641 26.7241541,37.3238381 23.1290183,38.7628624 C26.3646405,42.0006673 27.4431812,43.7994478 27.4431812,47.0372527 C27.4431812,49.1957893 26.8439919,50.9945698 25.6456133,52.4335942 C9.34766426,53.6327811 0.839176149,52.9132689 0.120148985,50.2750576 C-0.958391762,45.9579844 5.75221732,38.6979841 21.9303285,23.9479841 C22.6493557,24.4276589 24.08741,24.9289598 26.2444915,25.4518868 C15.8068189,37.3185277 11.173192,43.4343814 12.3436108,43.7994478 C14.0213408,44.51896 21.0917746,40.3498682 33.5549121,31.2921722 L33.1953986,27.9701795 L30.6788035,22.5738381 L30.3192899,20.0555454 Z"/><g id="Group-3-Copy-4" fill="#F6C9B6" transform="translate(164.845909, 106.599524) scale(-1, 1) rotate(37.000000) translate(-164.845909, -106.599524) translate(159.845909, 99.599524)"><polyline id="Fill-249" points="9.396 13.987 .578 11.819 .578 0 9.396 0 9.396 13.987"/></g><g id="Group-3-Copy-4" fill="#F6C9B6" transform="translate(184.270389, 86.599524) scale(-1, 1) rotate(37.000000) translate(-184.270389, -86.599524) translate(179.270389, 79.599524)"><polyline id="Fill-249" points="9.396 13.987 .578 11.819 .578 0 9.396 0 9.396 13.987"/></g><path id="Path-4" fill="#9A9CAB" d="M159.264517,110.379387 L170.049924,101.655301 C150.875867,68.8575369 139.730946,52.4586548 136.615161,52.4586548 C128.226511,51.2594678 114.684833,52.4586548 95.9901265,56.0562158 L90.2379092,58.2147524 L84.8452054,64.330606 L81.9690968,74.0440207 L80.5310424,76.9220694 C85.5642326,80.0399556 93.7132071,80.7594678 104.977966,79.080606 C121.755267,75.7228824 130.982782,73.1746101 132.660512,71.4357889 L159.264517,110.379387 Z"/><path id="Path-5" fill="#9A9CAB" d="M90.9569363,56.3260329 C125.949592,46.2528621 145.243487,41.2162768 148.838623,41.2162768 C152.433759,41.2162768 166.215113,54.6471711 190.182685,81.5089597 L178.67825,89.0638377 L147.939839,59.5638377 L144.52446,61.3626182 L105.696993,59.5638377 L90.9569363,56.3260329 Z"/><path id="Path-3" fill="#FF7B4F" d="M24.4469236,52.3687158 C28.7610866,52.7151476 32.4760603,53.3680383 35.5918446,54.3273879 C46.1942523,60.3708079 43.1416299,62.242022 54.6460645,69.0773879 C64.6672896,75.4108521 75.4978523,80.2298269 76.576393,80.2298269 C78.0144474,81.3090952 83.4071511,74.4737293 88.4403412,63.6810464 C91.5561256,57.6851114 97.0686672,54.0875505 104.977966,52.8883635 C104.019263,50.9696643 102.341533,49.6505586 99.9447759,48.9310464 C89.6387199,47.492022 78.1942042,41.4960871 65.6112288,30.9432415 L65.6112288,27.3456805 C63.8136609,24.4676318 62.4355255,22.9086887 61.4768226,22.6688513 C60.0387682,22.3090952 56.803146,22.6688513 56.0841188,22.6688513 C55.6047674,22.6688513 52.2493073,24.0545785 46.0177385,26.8260329 L40.9845484,27.3456805 L33.4347632,31.5028621 L20.8517878,40.2969001 C23.248545,40.2969001 24.6865993,41.0830338 25.1659508,42.6553011 C26.3643294,47.2122117 26.1246536,50.4500166 24.4469236,52.3687158 Z"/><g id="Group-2" transform="translate(30.727490, 19.392781) scale(-1, 1) rotate(24.000000) translate(-30.727490, -19.392781) translate(18.715996, 3.739720)"><path id="Fill-209" fill="#BA8478" d="M1.14799542,9.93107502 C1.2266534,9.21969446 1.24824579,7.781401 1.38859629,7.07933983 C1.67546656,5.65968517 2.69339332,4.083154 3.69589694,3.04559458 C4.53028842,2.18355044 4.20486032,2.26587177 5.18731387,1.57934293 C6.91007779,0.372481141 9.87131927,-0.107467755 11.9626961,0.0198973239 C12.8510685,0.0758137002 13.7301871,0.304138903 14.5784594,0.560422295 C14.7743331,0.620998369 16.9459102,1.97386403 16.5479934,2.17578428 C17.4903468,1.69738861 18.6563356,2.16180518 19.4413731,2.87007928 C20.7091546,4.01481176 21.3492146,5.68764336 21.9430052,7.29523917 C22.2283332,8.06098288 22.5121188,8.82672659 22.7959045,9.59402353 C23.0519285,10.2852121 23.3079525,11.0556155 23.0380476,11.7421443 C22.9192895,12.0434715 22.7079926,12.2997549 22.576896,12.5948691 C22.2345024,13.3637192 22.4781879,14.2506151 22.5367958,15.090914 C22.6216231,16.3039887 22.2591794,17.5294893 21.5821039,18.5313243 C20.9420439,19.4787963 19.9148633,19.7847831 19.2331608,20.5645059 L19.5832659,20.4526732 C16.7145632,22.2544231 13.0839578,22.0587158 9.712461,21.8008791 C8.11616677,21.679727 6.51987254,21.5570216 4.9235783,21.4358694 C4.06605213,21.3706337 3.12061409,21.2634606 2.54378893,20.6204223 C1.95616758,19.9649581 1.95770989,18.9848683 1.67392425,18.1507823 C1.29759981,17.0417742 0.396888861,16.1579848 0.0961377737,15.0272314 C-0.361929267,13.3093561 0.955206264,11.6986538 1.14799542,9.93107502"/><path id="Fill-210" fill="#F6C9B6" d="M18.9905033,22.055904 L18.9905033,10.8726287 L3.08462654,10.8726287 L3.08462654,22.055904 C4.66195443,25.6072889 6.64582787,30.0659249 11.0383361,30.0659249 C15.4308442,30.0659249 17.8708125,25.6431114 18.9905033,22.055904 Z"/><path id="Fill-211" fill="#BA8478" d="M1.60092117,10.3586696 C2.35357005,8.70447679 3.94369503,7.55508461 5.6494935,6.9601965 C7.35683429,6.36686161 9.18910245,6.26590149 10.9951513,6.22396421 C11.91437,6.20221895 12.8428426,6.19600602 13.7466382,6.36841485 C14.8432229,6.57810126 15.8719458,7.04407106 16.8883303,7.50538116 C17.6070483,7.83156003 18.3257663,8.15929212 19.0444842,8.48547098 C19.7184751,8.79145782 20.42177,9.12074315 20.8690408,9.7125248 C21.6679591,10.7702762 21.3949697,12.2784652 20.9446142,13.5272642 L20.6654555,13.7493765 C18.5278093,13.4635817 16.9500228,11.6789174 15.4555213,10.1132588 L15.1624817,9.90667888 C15.0128774,9.87406099 14.8648153,9.95327586 14.730634,10.027831 C12.4588066,11.2875027 9.81373932,11.6307671 7.23499154,11.910349 C5.3009307,12.1200354 3.09542273,12.2178891 1.69037534,10.8634702 L1.54231327,10.6429112 L1.60092117,10.3586696"/></g></g></g><g id="notebook" transform="translate(122.000000, 135.500000) rotate(-19.000000) translate(-122.000000, -135.500000) translate(87.000000, 121.000000)"><polygon id="Fill-194-Copy" fill="#C9CBD9" points=".732 28.643 22.48 28.643 22.48 25.787 .732 25.787"/><path id="Fill-195-Copy" fill="#C9CBD9" d="M59.7956796,28.5083855 L15.0268456,28.5083855 L25.5788897,1.15636141 C25.8319071,0.498545308 26.4629263,0.0650887574 27.1671072,0.0650887574 L68.2854796,0.0650887574 C69.4804533,0.0650887574 70.305046,1.26777806 69.8736971,2.38499706 L59.7956796,28.5083855"/><g id="Fill-196-Copy"><use fill="#000" fill-opacity="1" filter="url(#filter-2)" xlink:href="#path-1"/><use fill="#FFF" fill-rule="evenodd" xlink:href="#path-1"/></g></g><g id="ic_snaker" transform="translate(213.303743, 205.242463) rotate(-24.000000) translate(-213.303743, -205.242463) translate(197.803743, 198.742463)"><path id="Fill-185-Copy" fill="#FF7B4F" d="M2.75575946,0.974503547 L0.280456909,7.25504477 L0.280456909,12.215375 L30.6532117,12.215375 L30.6532117,10.8432714 C30.6532117,9.6115832 29.8088043,8.54167812 28.6138307,8.2577946 L23.719621,7.09020918 L13.486135,0.974503547 L11.6692873,0.974503547 L10.8446946,2.7922738 L5.56181364,2.7922738 L5.06644829,0.974503547 L2.75575946,0.974503547"/><path id="Fill-186-Copy" fill="#FFFFFE" d="M0.280456909,8.60578085 L0.280456909,11.2507816 L30.6532117,11.2507816 L30.6532117,9.8786779 C30.6532117,9.42080126 30.5358483,8.98581846 30.3285569,8.60578085 L0.280456909,8.60578085"/></g><g id="ic_snaker" transform="translate(234.080444, 185.606860) rotate(12.000000) translate(-234.080444, -185.606860) translate(219.580444, 172.106860)"><path id="Fill-187-Copy" fill="#FF7B4F" d="M3.65163358,23.4762954 L9.52821765,26.4402835 L28.3795366,2.05987878 L25.3745473,1.2402796 C24.3899134,0.503098211 23.0288019,0.541254598 22.0868456,1.33032867 L18.2260443,4.56141148 L6.51713161,9.12033654 L5.43190044,10.5779105 L6.39519552,12.3285255 L3.23705089,16.5684632 L1.48574386,15.8785957 L0.10329348,17.7345224 L3.65163358,23.4762954 Z"/><path id="Fill-188-Copy" fill="#FFFFFE" d="M6.20009778,24.831364 L8.31873728,26.4125646 L27.1700562,2.03215992 L26.0711072,1.21103448 C25.7052989,0.937834753 25.2876679,0.772999164 24.8578431,0.711948945 L6.20009778,24.831364"/></g><g id="stars" transform="translate(138.907129, 124.100224) rotate(-27.000000) translate(-138.907129, -124.100224) translate(24.907129, 43.100224)"><ellipse id="Oval-11" cx="51.618" cy="3.12" fill="#FF7B4F" opacity=".422" rx="3" ry="2.994"/><ellipse id="Oval-11" cx="164.306" cy="54.239" fill="#FF7B4F" opacity=".17" rx="1.8" ry="1.796"/><ellipse id="Oval-11-Copy-8" cx="67.615" cy="125.061" fill="#FADDD3" opacity=".17" rx="1.8" ry="1.796"/><ellipse id="Oval-11-Copy" cx="2.003" cy="48.982" fill="#FF7B4F" opacity=".502" rx="1.8" ry="1.796"/><ellipse id="Oval-11-Copy-2" cx="226.07" cy="107.033" fill="#FF7B4F" opacity=".17" rx="1.8" ry="1.796"/><ellipse id="Oval-11" cx="171.655" cy="144.788" fill="#FF7B4F" opacity=".446" rx="2.8" ry="2.794"/><ellipse id="Oval-11" cx="144.81" cy="87.339" fill="#FF7B4F" opacity=".184" rx="2.8" ry="2.794"/><ellipse id="Oval-11" cx="125.8" cy="11.794" fill="#FF7B4F" opacity=".184" rx="2.8" ry="2.794"/><ellipse id="Oval-11" cx="87.114" cy="158.13" fill="#FF7B4F" opacity=".224" rx="3" ry="2.994"/><path id="Rectangle-123" stroke="#FF7B4F" stroke-width="1.296" d="M20.1506767,118.603445 C20.1506767,117.573244 19.1742101,116.635347 19.1742101,116.635347 C18.3288966,115.546843 18.4994898,115.38988 19.586857,116.224326 C19.586857,116.224326 20.4437153,117.172528 21.4668581,117.172528 C22.423237,117.172528 23.3341164,116.210007 23.3341164,116.210007 C24.4078592,115.356411 24.5396642,115.50343 23.6834494,116.584531 C23.6834494,116.584531 22.7712577,117.352363 22.7712577,118.366419 C22.7712577,119.332714 23.7621071,120.327127 23.7621071,120.327127 C24.5994772,121.417984 24.4489848,121.563353 23.3617722,120.685527 C23.3617722,120.685527 22.6070835,119.794206 21.6955005,119.794206 C20.6275619,119.794206 19.6251352,120.799891 19.6251352,120.799891 C18.5307827,121.629648 18.3822702,121.448363 19.2313825,120.366516 C19.2313825,120.366516 20.1506767,119.553594 20.1506767,118.603445 Z" transform="translate(21.469296, 118.494542) scale(-1, 1) rotate(-66.000000) translate(-21.469296, -118.494542)"/><path id="Rectangle-123-Copy" stroke="#FF7B4F" stroke-width="1.44" d="M193.369939,129.85142 C193.369939,128.409138 192.002886,127.096083 192.002886,127.096083 C190.819447,125.572177 191.058277,125.352429 192.580592,126.520653 C192.580592,126.520653 193.780193,127.848136 195.212593,127.848136 C196.551524,127.848136 197.812707,126.510636 197.812707,126.510636 C199.323705,125.310063 199.514522,125.5114 198.315821,127.02494 C198.315821,127.02494 197.038752,128.099906 197.038752,129.519584 C197.038752,130.872397 198.425942,132.264575 198.425942,132.264575 C199.59826,133.791774 199.376498,133.985807 197.878682,132.776238 C197.878682,132.776238 196.808909,131.518486 195.532692,131.518486 C194.037578,131.518486 192.649018,132.916345 192.649018,132.916345 C191.10873,134.083582 190.884712,133.845677 192.082927,132.31972 C192.082927,132.31972 193.369939,131.181629 193.369939,129.85142 Z" transform="translate(195.216006, 129.698956) scale(-1, 1) rotate(-25.000000) translate(-195.216006, -129.698956)"/><path id="Rectangle-123-Copy" stroke="#FF7B4F" stroke-width="1.44" d="M123.944001,38.1026058 C123.944001,37.2784447 123.162828,36.5281274 123.162828,36.5281274 C122.486577,35.6573239 122.623051,35.5317535 123.492945,36.1993102 C123.492945,36.1993102 124.178432,36.9578718 124.996946,36.9578718 C125.762049,36.9578718 126.490753,36.1878551 126.490753,36.1878551 C127.349747,35.5049788 127.455191,35.622594 126.764546,36.4952274 C126.764546,36.4952274 126.040466,37.1017405 126.040466,37.9129853 C126.040466,38.686021 126.833145,39.4815512 126.833145,39.4815512 C127.503041,40.3542367 127.382647,40.4705322 126.512877,39.7682717 C126.512877,39.7682717 125.909126,39.0552145 125.17986,39.0552145 C124.325509,39.0552145 123.523568,39.8597629 123.523568,39.8597629 C122.648086,40.5235679 122.529276,40.3785404 123.208566,39.5130629 C123.208566,39.5130629 123.944001,38.8627252 123.944001,38.1026058 Z" transform="translate(124.998896, 38.015483) rotate(-25.000000) translate(-124.998896, -38.015483)"/></g></g></g></svg>