<svg xmlns="http://www.w3.org/2000/svg" width="268" height="185" viewBox="0 0 268 185"><g fill="none" fill-rule="evenodd"><g transform="scale(-1 1) rotate(-27 -20.68 625.03)"><ellipse cx="60.368" cy="3.151" fill="#FF7B4F" opacity=".422" rx="3.077" ry="3.075"/><ellipse cx="53.928" cy="42.906" fill="#FF7B4F" opacity=".17" rx="1.846" ry="1.845"/><ellipse cx="78.885" cy="104.842" fill="#FF7B4F" opacity=".17" rx="1.846" ry="1.845"/><ellipse cx="73.867" cy="101.129" fill="#FADDD3" opacity=".17" rx="1.846" ry="1.845"/><ellipse cx="2.841" cy="38.2" fill="#FF7B4F" opacity=".502" rx="1.846" ry="1.845"/><ellipse cx="251.38" cy="131.167" fill="#FF7B4F" opacity=".17" rx="1.846" ry="1.845"/><ellipse cx="172.61" cy="130.738" fill="#FF7B4F" opacity=".446" rx="2.872" ry="2.87"/><ellipse cx="153.048" cy="62.384" fill="#FF7B4F" opacity=".146" rx="2.872" ry="2.87"/><ellipse cx="188.359" cy="176.922" fill="#FF7B4F" opacity=".184" rx="2.872" ry="2.87"/><ellipse cx="86.174" cy="181.889" fill="#FF7B4F" opacity=".132" rx="3.077" ry="3.075"/><path stroke="#FF7B4F" stroke-width="1.33" d="M37.986 96.67c.965-.43 1.998.047 1.998.047 1.512.364 1.603.109.24-.648 0 0-1.02-.272-1.447-1.232-.399-.898.075-1.907.075-1.907.378-1.5.16-1.576-.578-.196 0 0-.21.954-1.16 1.378-.905.403-1.996-.064-1.996-.064-1.512-.356-1.582-.119-.214.597 0 0 .941.217 1.321 1.072.446 1.003-.033 2.104-.033 2.104-.346 1.517-.086 1.598.65.235 0 0 .253-.99 1.144-1.386z"/><path stroke="#FF7B4F" stroke-width="1.477" d="M206.4 106.836c.625-1.343 2.155-1.788 2.155-1.788 1.932-1.006 1.794-1.359-.341-.906 0 0-1.327.651-2.658.03-1.245-.582-1.662-2.069-1.662-2.069-.981-1.942-1.285-1.827-.8.31 0 0 .655 1.2.04 2.521-.587 1.26-2.17 1.77-2.17 1.77-1.923 1.014-1.794 1.333.323.828 0 0 1.194-.637 2.38-.083 1.39.649 1.894 2.254 1.894 2.254 1.026 1.92 1.38 1.781.902-.35 0 0-.64-1.279-.063-2.517zM131.785 12.263c-.358-.767-1.232-1.022-1.232-1.022-1.104-.575-1.025-.776.185-.519 0 0 .768.373 1.53.018.71-.332.954-1.19.954-1.19.558-1.105.729-1.036.452.185 0 0-.374.686-.023 1.441.335.72 1.24 1.01 1.24 1.01 1.099.58 1.016.76-.185.474 0 0-.682-.364-1.36-.047-.794.37-1.082 1.288-1.082 1.288-.586 1.097-.786 1.01-.515-.2 0 0 .365-.73.036-1.438z"/></g><path fill="#F6C9B6" d="M169.582 151.576l-.897-12.97 7.727-.528.898 12.968zM131.278 150.635l2.043-12.84 7.648 1.224-2.042 12.837z"/><path fill="#686970" d="M114.104 108.359L107 159.145l2.501.067 13.25-52.446h-8.497l-.15 1.593"/><path fill="#9A9CAB" d="M103.127 86.837c0 7.854 6.359 14.22 14.201 14.22h45.84c-2.168 7.943 3.293 41.58 2.816 45.13l13.819-1.43-1.368-45.482c-.435-8.59-4.012-17.477-13.026-17.477h-32.097l.23-4.031h-30.415v9.07z"/><path fill="#9A9CAB" d="M103.127 86.837c0 7.854 6.359 14.22 14.201 14.22h24.84c-8.05 9.742-12.707 41.58-13.184 45.13l13.819-1.43 14.632-45.482c3.21-8.436-3.012-17.477-12.026-17.477h-12.097l.23-4.031h-30.415v9.07z"/><path fill="#F6C9B6" d="M127.877 24.178s.539 12.217-1.216 18.958l9.58 1.689s1.068-11.844 3.387-13.416l-11.751-7.231"/><path fill="#F6C9B6" d="M145.762 17.161c.257-2.169-.276-4.344-.806-6.463l-.388.111c-1.761-2.412-4.91-3.621-7.884-3.346-2.972.276-5.726 1.915-7.682 4.174-2.78 3.214-4 7.731-3.176 11.902.824 4.17 3.688 7.892 7.523 9.715 1.53.729 3.391 1.145 4.884.34.604-.325 1.093-.823 1.57-1.317 1.223-1.268 2.458-2.598 3.084-4.244.496-1.303.579-2.722.89-4.082.525-2.303 1.706-4.444 1.985-6.79"/><path fill="#BA8478" d="M140.143 3.03c-.914-.713-1.966-1.227-3.033-1.68-2.697-1.143-4.625-1.294-7.142.42-1.9 1.292-3.345 3.292-3.829 5.554-.109.513-.178 1.045-.421 1.51-.285.547-.781.945-1.228 1.371-2.456 2.337-3.44 5.972-2.862 9.272.257 1.468.787 3.172 1.956 4.148.94.785 3.573 1.72 3.862 3.074-.44-2.054 11.554 0 13.4 4.301.239.555 1.227-2.993 0-7-.591-1.933 1.353-3.376 1.154-5-.41-3.337-.186-5.277 1-5 3.581.836 4.665-.805 7.508-3-3.163-1.16-4.99-2.279-7.276-4.756-1.01-1.092-1.914-2.3-3.089-3.214z"/><path fill="#F6C9B6" d="M114.379 36.192a13.214 13.214 0 0 0-9.725 7.872L94.715 67.74c-1.408 3.353 1.05 7.06 4.684 7.06l35.552 10.605 1.64-5.04-3.914 1.333-22.252-14.273c-1.82-.156-2.772-2.239-1.702-3.72l13.77-21.312c0-.314 3.013-5.8 0-7.047l-8.114.846z"/><path fill="#FF7B4F" d="M113.982 36.47a13.214 13.214 0 0 0-10.611 6.628L89.686 68.074c-1.124 3.522.478 5.322 4.484 6.573 1.957.611 22.79.864 25.33-.353 2.173-1.042 4.03-3.331 5.57-6.867-11.544-2.184-16.957-3.494-16.237-3.93.72-.436 5.213-6.78 13.478-19.033 0 0 3.55-6.98.71-8.584l-9.039.59zM129.762 148.36l-2.475 6.28v4.96h30.373v-1.372a2.656 2.656 0 0 0-2.04-2.586l-4.894-1.167-10.233-6.116h-1.817l-.825 1.818h-5.282l-.496-1.818h-2.31"/><path fill="#FFFFFE" d="M127.2 156v2.645h30.5v-1.372c0-.458-.117-.893-.325-1.273H127.2z"/><g fill="#FFFFFE"><path d="M143.668 150l-1.362 2.267.857.515.707-1.176c.236-.392.456-.767.646-1.096l-.848-.51M141.668 149l-1.362 2.267.857.515.707-1.176c.236-.392.456-.767.646-1.096l-.848-.51M145.505 151l-1.362 2.267.857.515.706-1.176c.236-.392.457-.767.647-1.096l-.848-.51M147.14 152l-1.363 2.267.858.515.706-1.176c.236-.392.457-.767.647-1.096l-.848-.51"/></g><path fill="#FF7B4F" d="M167.762 148.36l-2.475 6.28v4.96h30.373v-1.372a2.656 2.656 0 0 0-2.04-2.586l-4.894-1.167-10.233-6.116h-1.817l-.825 1.818h-5.282l-.496-1.818h-2.31"/><path fill="#FFFFFE" d="M165.2 156v2.645h30.5v-1.372c0-.458-.117-.893-.325-1.273H165.2z"/><g fill="#FFFFFE"><path d="M181.668 150l-1.362 2.267.857.515.707-1.176c.236-.392.456-.767.646-1.096l-.848-.51M179.668 149l-1.362 2.267.857.515.707-1.176c.236-.392.456-.767.646-1.096l-.848-.51M183.505 151l-1.362 2.267.857.515.706-1.176c.236-.392.457-.767.647-1.096l-.848-.51M185.14 152l-1.363 2.267.858.515.706-1.176c.236-.392.457-.767.647-1.096l-.848-.51"/></g><path fill="#474959" d="M105.828 77.218l21.696 1.517.2-2.849-21.696-1.517z"/><path fill="#474959" d="M164.758 81.204l-44.66-3.123 12.435-26.55a1.701 1.701 0 0 1 1.66-.977l41.018 2.868a1.705 1.705 0 0 1 1.423 2.425l-11.876 25.357"/><path fill="#ECECEC" d="M164.064 78.784l-46.591-4.077 12.547-22.343c.31-.633.976-1.01 1.677-.949L172.66 55a1.705 1.705 0 0 1 1.38 2.45l-9.975 21.335z"/><path fill="#686970" d="M165.945 108.359l7.105 50.786-2.5.067-13.251-52.446h8.499l.147 1.593"/><path fill="#FF7B4F" d="M147.334 35.687a13.214 13.214 0 0 1 9.724 7.872l10.539 26.458c.687 3.633-1.123 5.224-5.252 5.978-2.016.368-19.973 2.966-22.345 1.448-2.03-1.299-3.594-3.797-4.691-7.494 11.645-2.16 17.136-3.5 16.475-4.021-.662-.52-5.225-8.295-13.692-23.321 0 0-2.671-7.36.342-8.607l8.9 1.687z"/><path fill="#EA6C42" d="M139.5 32.414l-1 15.086-14.5-3.447 4-15.553z"/><path fill="#99685D" d="M139.5 26c1.02-.116-2.825-1.031-1.922-1.52.548-.297 1.952.012 2.562.143.61.133-3.109-6.842-2.562-6.623.317.127 4.422-4.337 4.422-2 0 6 1.5 6.459 2 7-.223.951-.423 2.093-.5 2.5-.195 1.037-.195 1.452-.36 1.919-.575 1.629 1.715 7.927-3.64 4.995 1.5-3.914-.771-6.326 0-6.414z"/><path fill="#FF7B4F" d="M133.36 33.505l8.37 1.58c5.13.97 9.508 4.301 11.813 8.993l-4.15 13.933-6.856 15.438-.698 6.94C149.955 78.5 137.172 100.315 107 97c-5.946-5-5.946-19.015-4.5-23.845 1.396-4.664 4.256-11.391 8.579-20.182-7.08-9.982-4.9-16.104 6.54-18.366 2.254-.475 5.835-.842 10.742-1.102"/><path fill="#505159" d="M172.762 108.15h-64.238v-.221c0-4.014 3.251-7.268 7.26-7.268h49.72c4.008 0 7.258 3.254 7.258 7.268v.22"/></g></svg>